<?xml version="1.0" encoding="UTF-8" standalone="no"?>
<!-- Created with Inkscape (http://www.inkscape.org/) -->

<svg
   xmlns:dc="http://purl.org/dc/elements/1.1/"
   xmlns:cc="http://creativecommons.org/ns#"
   xmlns:rdf="http://www.w3.org/1999/02/22-rdf-syntax-ns#"
   xmlns:svg="http://www.w3.org/2000/svg"
   xmlns="http://www.w3.org/2000/svg"
   xmlns:sodipodi="http://sodipodi.sourceforge.net/DTD/sodipodi-0.dtd"
   xmlns:inkscape="http://www.inkscape.org/namespaces/inkscape"
   width="2000"
   height="2000"
   viewBox="0 0 529.16665 529.16668"
   version="1.1"
   id="svg6462"
   sodipodi:docname="Anima.svg"
   inkscape:version="0.92.5 (2060ec1f9f, 2020-04-08)">
  <defs
     id="defs6456" />
  <sodipodi:namedview
     id="base"
     pagecolor="#ffffff"
     bordercolor="#666666"
     borderopacity="1.0"
     inkscape:pageopacity="0.0"
     inkscape:pageshadow="2"
     inkscape:zoom="0.12337386"
     inkscape:cx="-126.03357"
     inkscape:cy="29.254253"
     inkscape:document-units="mm"
     inkscape:current-layer="layer2"
     showgrid="true"
     inkscape:window-width="1366"
     inkscape:window-height="745"
     inkscape:window-x="-8"
     inkscape:window-y="-8"
     inkscape:window-maximized="1"
     units="px"
     inkscape:snap-page="false"
     inkscape:snap-bbox="true"
     inkscape:bbox-paths="true"
     inkscape:bbox-nodes="true"
     inkscape:snap-bbox-edge-midpoints="true"
     inkscape:snap-bbox-midpoints="true"
     inkscape:snap-global="true"
     showguides="true"
     inkscape:object-paths="true"
     inkscape:snap-intersection-paths="true"
     inkscape:snap-grids="true"
     inkscape:snap-midpoints="true"
     inkscape:snap-smooth-nodes="true"
     inkscape:snap-text-baseline="true">
    <inkscape:grid
       type="xygrid"
       id="grid4110"
       spacingx="2.6458333"
       spacingy="2.6458333"
       empspacing="4" />
  </sodipodi:namedview>
  <metadata
     id="metadata6459">
    <rdf:RDF>
      <cc:Work
         rdf:about="">
        <dc:format>image/svg+xml</dc:format>
        <dc:type
           rdf:resource="http://purl.org/dc/dcmitype/StillImage" />
        <dc:title></dc:title>
      </cc:Work>
    </rdf:RDF>
  </metadata>
  <g
     inkscape:groupmode="layer"
     id="layer2"
     inkscape:label="Layer 2">
    <path
       sodipodi:nodetypes="ssssssccsscccccscssssccss"
       inkscape:connector-curvature="0"
       id="path7428"
       d="m 198.43756,58.208343 c -42.3334,0 -103.187494,15.875001 -134.937494,58.208337 -33.7508,45.00094 -39.6875,68.79178 -39.6875,132.29168 v 10.5833 c 0,68.7917 37.0416,111.125 52.9166,127.00001 31.749994,31.75 87.312494,42.3333 119.062494,42.3333 26.4584,0 58.2084,-2.6458 68.7917,-5.2916 26.4583,-6.6146 56.9119,-24.7298 74.0833,-47.62501 15.875,-21.1667 18.5209,-31.75 23.8125,-79.375 0.5844,-5.2593 2.6459,-21.1666 2.6459,-31.75 -1e-4,-15.875 -5.2917,-31.75 -5.2917,-31.75 h -164.0417 v 55.5625 h 111.125 c 0,23.8125 -9.1664,48.8539 -18.5208,58.2083 -18.5208,18.5209 -44.9792,29.1042 -82.0208,29.1042 -26.4584,0 -68.7917,-5.2917 -89.9584,-26.4584 -21.166594,-21.1667 -34.395794,-52.9167 -34.395794,-95.25 0,-50.2708 2.6458,-89.95828 39.687494,-121.70828 22.7277,-19.4809 52.9167,-23.8125 82.0208,-23.8125 29.1042,0 43.8742,3.41625 63.5,13.22917 10.5834,5.29167 29.1042,26.45833 34.3959,34.39583 l 52.9166,-10.58333 c -5.2916,-18.52083 -26.4583,-44.97917 -52.9166,-63.500006 -21.6756,-15.17286 -47.625,-23.812501 -103.1875,-23.812501 z"
       style="fill:#000000;stroke:none;stroke-width:0.26458332px;stroke-linecap:butt;stroke-linejoin:miter;stroke-opacity:1" />
  </g>
</svg>
