<?xml version="1.0" encoding="UTF-8" standalone="no"?>
<!-- Created with Inkscape (http://www.inkscape.org/) -->

<svg
   xmlns:dc="http://purl.org/dc/elements/1.1/"
   xmlns:cc="http://creativecommons.org/ns#"
   xmlns:rdf="http://www.w3.org/1999/02/22-rdf-syntax-ns#"
   xmlns:svg="http://www.w3.org/2000/svg"
   xmlns="http://www.w3.org/2000/svg"
   xmlns:sodipodi="http://sodipodi.sourceforge.net/DTD/sodipodi-0.dtd"
   xmlns:inkscape="http://www.inkscape.org/namespaces/inkscape"
   width="2000"
   height="2000"
   viewBox="0 0 529.16665 529.16668"
   version="1.1"
   id="svg6462"
   sodipodi:docname="Anima.svg"
   inkscape:version="0.92.5 (2060ec1f9f, 2020-04-08)">
  <defs
     id="defs6456" />
  <sodipodi:namedview
     id="base"
     pagecolor="#ffffff"
     bordercolor="#666666"
     borderopacity="1.0"
     inkscape:pageopacity="0.0"
     inkscape:pageshadow="2"
     inkscape:zoom="0.14928237"
     inkscape:cx="-238.74324"
     inkscape:cy="849.03246"
     inkscape:document-units="mm"
     inkscape:current-layer="layer2"
     showgrid="true"
     inkscape:window-width="1366"
     inkscape:window-height="745"
     inkscape:window-x="-8"
     inkscape:window-y="-8"
     inkscape:window-maximized="1"
     units="px"
     inkscape:snap-page="false"
     inkscape:snap-bbox="true"
     inkscape:bbox-paths="true"
     inkscape:bbox-nodes="true"
     inkscape:snap-bbox-edge-midpoints="true"
     inkscape:snap-bbox-midpoints="true"
     inkscape:snap-global="true"
     showguides="true"
     inkscape:object-paths="true"
     inkscape:snap-intersection-paths="true"
     inkscape:snap-grids="true"
     inkscape:snap-midpoints="true"
     inkscape:snap-smooth-nodes="true"
     inkscape:snap-text-baseline="true">
    <inkscape:grid
       type="xygrid"
       id="grid4110"
       spacingx="2.6458333"
       spacingy="2.6458333"
       empspacing="4" />
  </sodipodi:namedview>
  <metadata
     id="metadata6459">
    <rdf:RDF>
      <cc:Work
         rdf:about="">
        <dc:format>image/svg+xml</dc:format>
        <dc:type
           rdf:resource="http://purl.org/dc/dcmitype/StillImage" />
        <dc:title></dc:title>
      </cc:Work>
    </rdf:RDF>
  </metadata>
  <path
     inkscape:label="B"
     sodipodi:nodetypes="cccssscsssccccscscccccsssccc"
     inkscape:connector-curvature="0"
     id="path7344"
     d="M 31.75,63.500008 V 423.33333 h 174.625 c 47.625,0 82.02085,-18.52083 97.89583,-42.33334 13.84572,-20.7686 18.52085,-42.33333 18.52085,-63.5 0,-21.16667 -5.61497,-47.24642 -21.16668,-60.85416 -21.16667,-18.52083 -42.33333,-26.45833 -52.91667,-29.10417 10.58334,0 26.45833,-15.87499 31.75,-21.16666 15.875,-15.875 21.16669,-37.04166 21.16668,-47.625 C 301.625,137.58334 293.45051,118.66752 285.75,105.83333 269.875,79.375008 240.77083,63.500008 216.95833,63.500008 Z m 55.562505,47.625002 105.833325,-1e-5 c 29.10417,0 52.91663,21.16668 52.91666,47.62501 l 1e-5,10.58333 c 0,10.58334 -2.64583,21.16666 -13.22916,31.74999 -10.58333,10.58333 -39.68751,15.875 -52.91667,15.875 H 87.312505 Z m 1e-5,150.81249 H 190.50001 c 21.16667,10e-6 39.6875,5.29166 47.625,10.58333 14.76789,9.84526 26.45834,23.8125 26.45834,39.6875 0,21.16666 -7.25148,32.50123 -15.87501,39.6875 -15.875,13.22917 -47.625,21.16667 -74.08333,21.16667 H 87.312505 Z"
     style="display:inline;fill:#000000;stroke:none;stroke-width:0.26458332px;stroke-linecap:butt;stroke-linejoin:miter;stroke-opacity:1" />
  <g
     inkscape:groupmode="layer"
     id="layer2"
     inkscape:label="Layer 2" />
</svg>
